<svg width="90" height="53" viewBox="0 0 90 53" fill="none" xmlns="http://www.w3.org/2000/svg">
<path fill-rule="evenodd" clip-rule="evenodd" d="M68.6345 38.8127L64.1151 39.5797L59.9897 40.9972L51.4989 53H45.8097L46.2838 52.0857L50.6185 29.8597L45.7358 37.3706L45.3417 33.204L43.1621 36.5115L38.1193 45.17L36.3891 45.8818L33.1073 49.3059L31.0816 53H20.873L26.2174 44.5134L27.3688 42.1263L18.2315 53H6.82835L9.13731 51.828L18.3916 42.1079L16.9262 49.5636L26.8824 35.229L27.0302 33.8238L20.5589 36.6588L10.4919 45.2191L6.77909 47.4159L2.09345 53H0.123144C0.0738866 52.6564 0.0307861 52.3066 0 51.9568L9.40823 40.224L14.2478 41.2427L19.6723 34.8486L26.6053 31.5226L31.9929 23.079L40.2743 14.6292L44.7075 6.44321L49.504 0L60.5562 29.4731L65.2357 35.1063L69.0655 33.5722L74.4961 40.4756L90 52.5336C89.9815 52.6932 89.9507 52.8466 89.9261 53H69.4472L68.9608 51.515L64.3367 46.8759L71.4914 41.2795L68.6345 38.8127ZM45.9944 15.8135L48.9806 4.4182L46.487 6.99548L41.2164 18.2435L39.8988 18.5012L36.4569 23.7233L28.5017 39.7209L31.8266 35.5174L39.3631 24.5026L39.9911 25.374L40.6622 34.1613L46.5239 19.4585L45.9944 15.8135ZM59.9528 34.7013L56.1784 36.0574L54.2697 40.089L54.7315 41.9484L57.533 38.242L59.9528 34.7013ZM50.7047 26.589L51.5913 19.121L50.4953 15.2919L50.4399 9.73845L46.647 24.5456L46.8441 26.3988L48.6297 29.424L50.4953 27.0615L50.7047 26.589Z" fill="white"/>
</svg>
